<svg width="57" height="57" viewBox="0 0 57 57" fill="none" xmlns="http://www.w3.org/2000/svg">
<path d="M56.4068 28.2137C56.4068 42.4628 45.8475 54.2429 32.1302 56.1545C30.8476 56.3324 29.5354 56.4253 28.2034 56.4253C26.6658 56.4253 25.156 56.3028 23.6856 56.0656C10.2569 53.9029 0 42.2553 0 28.2137C0 12.6321 12.6284 0 28.2054 0C43.7823 0 56.4107 12.6321 56.4107 28.2137H56.4068Z" fill="#383D38"/>
<path d="M32.1302 22.6547V28.8007H39.731L38.5274 37.0798H32.1302V56.1544C30.8476 56.3323 29.5354 56.4253 28.2034 56.4253C26.6658 56.4253 25.156 56.3027 23.6856 56.0655V37.0798H16.6758V28.8007H23.6856V21.2808C23.6856 16.6154 27.4662 12.8317 32.1322 12.8317V12.8356C32.146 12.8356 32.1579 12.8317 32.1717 12.8317H39.733V19.9918H34.7923C33.3239 19.9918 32.1322 21.1839 32.1322 22.6527L32.1302 22.6547Z" fill="white"/>
</svg>
