<svg width="57" height="57" viewBox="0 0 57 57" fill="none" xmlns="http://www.w3.org/2000/svg">
<path d="M28.2696 0H28.1411C12.5992 0 0 12.6029 0 28.1494V28.2779C0 43.8244 12.5992 56.4273 28.1411 56.4273H28.2696C43.8115 56.4273 56.4107 43.8244 56.4107 28.2779V28.1494C56.4107 12.6029 43.8115 0 28.2696 0Z" fill="#383D38"/>
<path d="M36.9342 11.48H19.4792C14.6569 11.48 10.7339 15.4042 10.7339 20.2279V36.2014C10.7339 41.0251 14.6569 44.9493 19.4792 44.9493H36.9342C41.7565 44.9493 45.6796 41.0251 45.6796 36.2014V20.2279C45.6796 15.4042 41.7565 11.48 36.9342 11.48ZM13.819 20.2279C13.819 17.1063 16.3586 14.566 19.4792 14.566H36.9342C40.0549 14.566 42.5945 17.1063 42.5945 20.2279V36.2014C42.5945 39.323 40.0549 41.8633 36.9342 41.8633H19.4792C16.3586 41.8633 13.819 39.323 13.819 36.2014V20.2279Z" fill="white"/>
<path d="M28.2064 36.3497C32.6907 36.3497 36.341 32.7003 36.341 28.2127C36.341 23.7251 32.6927 20.0757 28.2064 20.0757C23.7201 20.0757 20.0718 23.7251 20.0718 28.2127C20.0718 32.7003 23.7201 36.3497 28.2064 36.3497ZM28.2064 23.1636C30.9911 23.1636 33.256 25.4292 33.256 28.2147C33.256 31.0002 30.9911 33.2657 28.2064 33.2657C25.4217 33.2657 23.1568 31.0002 23.1568 28.2147C23.1568 25.4292 25.4217 23.1636 28.2064 23.1636Z" fill="white"/>
<path d="M37.0941 21.3903C38.3016 21.3903 39.2859 20.4078 39.2859 19.1979C39.2859 17.988 38.3036 17.0055 37.0941 17.0055C35.8846 17.0055 34.9023 17.988 34.9023 19.1979C34.9023 20.4078 35.8846 21.3903 37.0941 21.3903Z" fill="white"/>
</svg>
