<svg width="447" height="297" viewBox="0 0 447 297" fill="none" xmlns="http://www.w3.org/2000/svg">
<g clip-path="url(#clip0_83_6)">
<path d="M222.747 42.1085C227.231 41.2607 242.635 52.1592 248.585 53.9299C249.184 57.1925 248.924 63.739 248.904 67.3593L248.882 87.7212L248.911 130.286C248.918 135.679 249.58 153.872 248.322 158.028C244.242 161.75 228.41 177.311 224.465 179.415C224.027 179.661 223.841 179.67 223.358 179.8C220.79 179.016 199.628 160.416 198.056 156.234C197.582 154.974 197.595 142.51 197.598 139.846L197.642 110.739L197.594 75.4633C197.58 69.8493 197.315 60.6431 197.811 55.2626C199.623 52.9641 216.689 44.702 220.347 42.6981C220.79 42.4551 222.168 42.1981 222.747 42.1085ZM237.173 86.9938C237.138 84.0484 236.936 77.5829 237.341 74.8258C233.532 74.8249 228.661 74.9714 224.944 74.8107C225.028 78.6981 224.984 82.6365 225.153 86.5094C229.48 87.1162 232.931 86.7014 237.173 86.9938ZM222.106 89.6578L210.093 89.4443C209.785 90.6117 210.002 98.9161 209.798 101.453C213.82 101.344 217.79 101.585 221.684 101.49C222.399 100.406 221.882 91.813 222.106 89.6578ZM237.228 89.3408C234.633 89.5725 227.925 89.5786 225.18 89.4861C224.77 92.1872 225.359 97.9097 225.022 101.277C228.654 101.309 233.624 101.364 237.199 101.627C237.019 97.5637 237.155 93.412 237.228 89.3408ZM222.044 86.6605C222.036 82.9825 221.919 78.6667 222.05 75.0398C218.501 75.0604 213.384 74.8913 209.83 74.6596L209.913 86.9766C213.975 86.5633 218.08 86.9407 222.044 86.6605Z" fill="#004D6F"/>
<path d="M192.852 57.1017L193.58 57.1516C194.834 58.8005 194.137 144.691 193.929 153.57C186.88 146.73 182.272 141.005 175.834 133.68C160.057 111.557 154.763 106.169 155.588 77.2881C158.195 74.712 162.539 72.9294 165.797 71.2205L185.104 61.2171C187.747 59.8217 190.319 58.7039 192.852 57.1017Z" fill="#004D6F"/>
<path d="M253.148 56.9808C264.242 62.5777 275.355 68.042 286.263 74.0354C287.974 74.9757 289.726 75.8507 291.136 77.2168C292.506 105.809 287.052 111.101 271.611 133.296C270.691 134.523 269.659 135.775 268.609 136.889C263.403 142.411 258.498 148.244 253.113 153.593L253.148 56.9808Z" fill="#004D6F"/>
<path d="M99.0979 98.8862C103.908 101.008 113.616 102.979 119.045 104.479C129.91 107.482 141.797 113.855 151.094 119.495C158.333 123.886 206.028 167.309 206.839 171.04C204.179 169.895 201.249 170.035 198.709 169.199C192.746 167.235 186.811 165.314 180.757 163.63C178.277 162.941 175.784 161.674 173.338 160.924C152.985 154.701 133.84 144.964 119.348 129.065C114.159 123.373 109.937 118.592 106.219 111.748C104.664 108.888 98.2468 102.192 99.0979 98.8862Z" fill="#004D6F"/>
<path d="M347.38 98.9314C347.923 99.0425 347.682 98.9082 348.045 99.4552C347.537 102.095 332.911 123.516 330.455 126.515C310.471 150.925 278.356 159.735 249.521 168.742C246.454 169.699 244.123 169.429 240.991 170.885C240.695 170.804 240.76 170.79 240.5 170.555C240.997 169.804 243.283 167.592 244.021 166.863C249.929 161.032 255.968 154.933 262.119 149.37C273.846 138.791 284.136 126.81 297.693 118.418C306.764 112.804 316.45 108.283 326.516 104.71C333.195 102.339 340.62 101.056 347.38 98.9314Z" fill="#004D6F"/>
<path d="M299.728 174.235L300.024 174.161C301.411 175.35 290.753 221.697 291.717 227.74C292.013 229.6 295.569 230.023 296.944 230.815C300.21 235.827 283.711 233.431 281.487 232.617C278.339 229.286 278.89 226.119 279.458 221.907C280.238 216.114 280.901 210.522 282.54 204.884C275.375 205.14 266.024 204.773 258.502 204.859C257.249 214.795 254.352 223.255 253.806 233.642C251.665 233.591 248.745 233.785 246.55 233.868C245.611 233.856 241.143 233.947 241.392 232.228C243.894 214.922 247.626 198.255 249.789 180.863C247.87 175.827 244.698 177.835 243.334 176.049L243.511 175.51C245.895 173.494 259.259 173.554 261.647 175.955C263.947 181.075 260.632 194.193 259.443 200.089C265.2 200.085 278.804 201.068 283.506 199.931C283.649 196.62 286.853 177.171 288.421 174.832C289.562 173.921 297.534 174.334 299.728 174.235Z" fill="#004D6F"/>
<path d="M74.1883 190.09C74.7123 190.038 75.2382 190.008 75.7645 190.001C81.4756 189.904 82.585 190.868 86.5981 194.739C89.5056 192.123 91.0185 190.096 95.3253 190.541C96.4481 190.657 97.1427 190.179 98.1647 190.88C99.4401 195.058 92.1598 227.086 91.6225 233.755C90.7506 233.708 89.6627 233.642 88.8087 233.656C84.2815 233.734 82.7617 234.776 81.0846 230.01C75.5578 232.18 73.308 235.04 66.5972 234.162C62.007 233.561 60.3821 232.424 56.5266 229.94C54.9171 226.381 52.93 223.388 52.7239 219.248C52.0944 206.592 60.6553 191.345 74.1883 190.09ZM72.9353 229.957C81.4469 226.186 80.9961 221.742 82.0637 213.72C82.9188 207.295 89.2078 195.08 77.4268 194.7C71.4422 195.662 70.2919 201.315 67.8679 205.92C65.1546 211.075 62.7083 232.28 72.9353 229.957Z" fill="#004D6F"/>
<path d="M199.845 190.096C202.754 189.939 204.503 190.011 207.363 190.64C209.497 192.516 209.752 192.797 211.481 195.03C216.186 189.604 216.961 190.793 223.65 190.378L218.289 221.29C217.555 225.719 217.936 228.833 216.581 233.577C214.186 233.619 210.332 234.131 208.337 233.231C206.969 232.613 206.643 231.239 206.14 229.879C202.363 231.52 200.597 233.771 196.119 234.063C166.345 236.007 176.331 192.19 199.845 190.096ZM191.711 227.386C194.047 229.57 195.543 231.01 198.911 229.601C207.413 225.88 206.394 218.994 207.588 211.465C208.298 206.995 209.629 204.222 209.745 199.37C206.863 195.2 206.311 194.641 201.21 194.948C191.264 198.482 189.655 218.662 191.711 227.386Z" fill="#004D6F"/>
<path d="M317.75 190.091C320.177 189.732 323.283 190.249 325.657 190.724C327.976 192.874 328.139 193.11 330.777 194.843C331.869 193.076 332.768 192.139 334.281 190.809C335.807 190.605 340.408 190.395 341.859 190.711C341.581 196.067 339.709 202.207 338.838 207.456C338.077 212.021 337.947 216.572 337.085 221.256C336.414 224.913 335.07 230.235 334.911 233.753C332.966 233.465 329.117 233.588 327.108 233.678C326.211 232.563 325.178 231.403 324.241 230.307C321.289 230.519 317.884 234.04 313.98 234.31C304.744 234.95 297.351 230.102 296.416 220.465C295.702 212.433 298.225 204.449 303.417 198.279C306.964 194.033 312.145 190.606 317.75 190.091ZM311.632 228.93C313.176 229.722 315.01 230.716 316.764 229.728C319.454 228.446 323.027 226.241 323.794 223.169C325.468 216.454 329.419 202.275 326.345 196.155C323.074 194.817 322.13 194.642 318.554 194.966C315.637 196.493 312.143 203.454 311.275 206.669C309.611 212.841 306.985 220.185 310.148 226.206C310.633 227.119 311.127 228.028 311.632 228.93Z" fill="#004D6F"/>
<path d="M155.508 14.1115C161.434 15.6881 189.636 28.9013 194.395 32.6767C194.735 38.1303 194.462 46.8054 194.489 52.498C189.963 55.8073 185.064 57.368 181.019 60.0976C177.824 61.7096 157.624 72.9002 155.834 72.3662C155.438 70.8766 155.5 65.4172 155.477 63.5589C155.425 55.2145 155.422 46.8701 155.466 38.5256L155.449 24.1299C155.423 21.0571 155.264 17.0671 155.508 14.1115Z" fill="#F17E26"/>
<path d="M290.509 14.2058L291.064 14.6759C291.406 16.6814 291.241 27.3685 291.241 29.9192L291.252 56.9201C291.247 62.1417 291.072 67.8523 291.348 73.0138C282.731 69.0066 275.064 64.6444 266.729 60.3539C263.19 58.5336 256.251 54.5314 253.055 53.3474C252.575 50.0421 252.691 36.3076 253.031 32.7558C257.192 28.0646 283.426 17.0422 290.509 14.2058Z" fill="#F17E26"/>
<path d="M140.244 190.103C143.524 189.836 149.562 189.507 152.578 190.952C159.174 194.114 159.532 203.006 161.109 209.145C161.925 212.322 163.058 215.311 164.226 218.303C169.399 212.27 175.575 198.1 180.602 190.527C181.838 190.514 184.663 190.247 185.445 191.172C184.36 194.777 179.444 202.327 177.521 205.779C173.997 212.105 170.537 218.193 166.812 224.395C163.41 231.078 156.859 243.97 150.849 248.519C148.051 250.636 142.009 251.632 138.608 251.039C138.177 250.446 138.17 250.3 138.319 249.381C138.891 245.854 146.093 247.038 148.01 245.105C150.086 243.01 154.871 237.428 155.153 234.777C155.731 229.334 151.781 221.469 150.36 216.196C148.573 209.563 146.874 199.458 143.132 193.941C141.607 193.271 138.963 192.798 138.5 191.247C138.961 190.483 139.42 190.405 140.244 190.103Z" fill="#004D6F"/>
<path d="M385.166 190.653C388.306 190.534 396.434 190.032 399.31 191.463C402.567 193.084 401.31 200.778 401.13 204.133C400.86 209.226 399.664 214.629 398.437 219.76C395.516 231.944 397.04 245.251 382.49 249.57C381.909 249.702 381.326 249.817 380.739 249.917C379.018 250.207 372.879 251.25 372.696 248.885C374.397 246.035 376.063 246.732 378.345 245.236L378.568 245.086C382.858 238.704 384.667 226.527 386.077 219.013C387.63 210.723 389.682 204.045 389.322 195.521C387.436 194.924 384.141 194.909 383.616 192.838C383.915 191.769 384.373 191.433 385.166 190.653Z" fill="#004D6F"/>
<path d="M371.675 190.061C374.31 189.914 376.029 190.109 378.676 190.368C379.605 192.014 381.596 193.713 381.416 195.715C381.21 197.996 379.259 199.471 377.004 199.274C375.004 199.1 374.238 197.848 373.027 196.429C368.517 196.033 366.627 196.187 363.092 198.913C361.696 202.852 361.031 211.319 360.131 215.862C358.883 222.144 359.391 226.75 356.607 232.955C353.745 234.016 352.506 233.937 349.545 233.84L344.3 233.643C346.204 221.519 348.91 209.636 350.283 197.473C350.622 194.474 344.712 195.344 344.448 192.412C344.593 192.083 344.895 191.25 345.119 191.142C347.65 189.926 355.951 190.689 358.43 191.038C362.43 195.238 363.693 192.16 368.258 190.626C369.286 190.282 370.586 190.156 371.675 190.061Z" fill="#004D6F"/>
<path d="M127.481 190.088C130.493 189.896 132.282 190.137 135.233 190.669C136.705 192.338 137.632 193.335 138.796 195.226C137.007 197.979 135.648 198.618 132.774 199.716C131.148 198.512 130.573 197.348 128.486 196.619C125.279 195.498 122.092 197.571 119.213 199.048C118.099 203.016 118.257 206.301 117.714 210.136C116.773 216.781 115.119 227.903 112.3 233.729L107.904 233.629C105.803 233.581 103.44 233.712 101.32 233.784C100.878 227.284 103.932 214.657 105.509 208.041C106.111 205.516 107.665 198.269 106.159 195.871C105.255 194.431 103.338 194.71 101.637 194.362C100.81 193.465 100.637 191.846 101.544 190.981C104.219 190.196 111.435 190.585 114.285 190.967C118.469 195.021 119.751 192.526 124.169 190.599C124.872 190.293 126.653 190.156 127.481 190.088Z" fill="#004D6F"/>
<path d="M95.9871 256.679C103.487 256.724 108.946 259.636 111.349 267.204C112.598 271.1 112.219 275.335 110.298 278.948C108.165 282.885 105.367 284.598 101.277 285.804C87.2233 288.135 81.998 275.209 86.4866 264.034C88.0789 260.069 92.2668 258.092 95.9871 256.679ZM93.148 280.778C94.7897 281.707 96.9185 283.183 98.7672 283.056C106.195 279.99 106.202 271.079 103.731 264.582C102.707 261.889 100.981 260.2 98.0154 260.202C95.7903 260.76 94.4644 261.307 93.2087 263.376C91.0074 267.003 91.0422 273.619 92.0628 277.61C92.3472 278.691 92.71 279.75 93.148 280.778Z" fill="#F17E26"/>
<path d="M187.383 256.802C194.755 256.254 199.665 261.63 200.651 268.537C200.982 269.426 200.508 272.334 199.261 272.398C193.717 272.685 187.406 272.605 181.876 272.663C182.971 281.316 187.567 286.822 195.877 280.521C196.833 279.771 197.613 278.906 198.852 279.297L199.036 279.905C198.189 283.298 193.914 285.357 190.707 285.824C184.615 286.71 180.107 284.748 177.269 279.123C173.787 272.222 175.352 263.306 181.913 258.813C183.74 257.562 185.182 257.046 187.383 256.802ZM181.97 269.693C184.252 269.703 186.533 269.728 188.814 269.77L194.099 269.735C193.408 265.086 192.974 259.674 186.947 260.314C183.003 262.235 182.727 265.794 181.97 269.693Z" fill="#F17E26"/>
<path d="M332.635 273.62C333.906 273.394 341.92 273.537 343.659 273.548C351.104 273.609 358.552 273.624 365.997 273.595L418.11 273.619C425.764 273.628 433.477 273.585 441.134 273.551C442.034 273.547 442.373 273.787 442.916 274.421C442.991 275.293 443.078 274.963 442.605 275.671C441.659 276.331 440.333 276.421 439.166 276.599C437.828 276.78 432.345 276.289 430.574 276.255C426.403 276.175 422.305 276.133 418.122 276.164C395.096 276.338 372.232 275.897 349.197 276.488C344.477 276.608 334.606 277.078 329.726 276.149C329.39 276.085 329.366 275.699 329.276 275.363C330.167 273.683 330.896 273.744 332.635 273.62Z" fill="#F17E26"/>
<path d="M262.319 248.842C263.104 248.744 263.276 248.684 263.957 249.062C265.054 250.72 264.717 255.655 264.689 257.822C266.512 257.785 270.68 257.372 271.838 259.087C271.349 261.37 266.257 260.823 264.479 260.675C264.52 266.263 264.32 277.015 265.112 282.153C268.702 282.995 269.024 282.197 272.405 282.423C273.079 282.469 273.124 282.69 273.417 283.137C273.32 284.03 272.872 284.32 272.226 284.929C270.914 285.496 269.515 285.836 268.088 285.933C265.84 286.083 262.106 286.028 260.419 284.375C257.969 281.975 258.995 264.812 259.05 260.694C257.28 260.746 255.274 261.097 254.106 259.562C254.279 257.445 257.291 257.761 258.882 257.755C258.862 253.4 258.275 251.238 262.319 248.842Z" fill="#F17E26"/>
<path d="M231.237 257.029C234.393 256.663 240.736 257.273 238.183 262.063C236.429 263.262 229.41 258.751 227.902 262.558C225.901 267.612 228.868 280.722 226.398 285.19C225.732 285.897 224.843 285.973 223.876 286.186C223.201 286.108 222.246 285.989 221.68 285.58C219.167 283.765 221.468 266.865 220.852 262.925C220.561 261.067 219.193 260.788 217.896 259.761C217.281 259.274 217.069 258.992 216.965 258.225C218.923 256.057 224.92 258.522 227.01 259.891C228.354 258.055 229.157 257.843 231.237 257.029Z" fill="#F17E26"/>
<path d="M60.6729 257.01L60.8595 256.991C63.9676 256.694 67.9094 257.258 68.2034 261.137C66.8366 264.496 60.8273 259.293 58.1105 261.473C52.2017 266.216 60.5437 282.662 53.7 286.048C52.6313 286.058 51.6772 286.133 50.6575 285.813C50.4949 285.66 50.2964 285.474 50.0619 285.254C49.7237 280.414 50.2979 274.52 50.0474 269.718C49.8581 266.09 49.83 263.9 49.2129 260.75C48.0658 260.252 46.0383 259.702 46.5193 258.254C47.5967 257.536 49.4909 257.438 50.7141 257.656C53.4977 258.152 53.9708 258.022 55.6186 260.095C57.5007 258.525 58.4948 258.094 60.6729 257.01Z" fill="#F17E26"/>
<path d="M397.069 174.355L400.828 174.346C405.229 176.774 404.703 179.655 403.452 184.029C402.393 184.941 400.57 186.243 399.296 186.786C396.521 187.009 393.641 185.902 392.411 183.263C391.761 181.852 391.708 180.239 392.263 178.788C393.235 176.178 394.77 175.418 397.069 174.355Z" fill="#004D6F"/>
<path d="M197.662 0H199.706C200.708 0.711828 201.362 0.852837 202.426 1.34798C216.178 7.75393 228.98 16.0491 242.828 22.3553C245.038 23.3616 247.501 24.66 249.223 26.3715C249.749 33.5297 249.266 43.4426 248.947 50.7055C246.327 49.4757 243.881 48.3655 241.302 47.0397C235.898 44.2623 228.832 39.4929 223.224 37.7033C217.362 40.2197 211.205 44.226 205.519 47.2334C203.197 48.462 200.11 49.7745 197.655 50.9358C198.127 34.2806 197.061 16.8103 197.662 0Z" fill="#F17E26"/>
<path d="M429.567 229.777C425.495 232.323 420.975 234.56 416.087 234.415C412.05 234.284 408.236 232.538 405.499 229.57C393.357 216.497 408.378 188.369 425.738 189.959C430.795 190.423 432.086 191.743 435.268 195.256C439.088 189.623 440.516 190.602 447 190.585V194.691C445.694 197.43 445.096 202.877 444.51 206.05C442.823 215.15 441.665 224.257 440.147 233.415C437.909 233.74 433.802 233.679 431.41 233.71C430.786 232.405 430.171 231.093 429.567 229.777ZM422.064 229.626C425.428 228.164 428.037 226.181 429.161 222.508C431.117 216.1 432.217 206.911 433.024 200.197C430.798 195.205 429.857 194.553 424.342 194.958C414.894 197.716 408.038 233.2 422.064 229.626Z" fill="#004D6F"/>
<path d="M18.2181 201.013L18.3715 200.915C21.1802 199.093 21.9714 197.21 24.1388 195.332C31.9016 188.605 38.6217 178.578 48.3195 174.715C49.4579 174.261 59.1828 174.015 60.1235 174.373C60.3679 175.52 60.2614 175.89 60.0637 177.056C59.314 177.936 49.8742 178.24 47.0578 180.315C39.736 185.709 33.069 193.799 26.6697 200.004C28.0933 202.517 30.0883 204.927 31.9289 207.165C36.6029 212.85 40.9562 218.791 45.6953 224.416C46.5783 225.464 48.186 226.495 49.2339 227.392C50.879 228.746 53.9793 230.151 55.646 231.517C55.6486 231.793 55.6506 232.033 55.6527 232.236C55.372 232.843 55.0301 233.549 54.312 233.72C34.3592 238.461 27.0596 221.347 16.5316 209.067C15.7291 212.822 14.7939 216.548 14.2076 220.34C13.5171 224.806 13.3922 229.259 12.287 233.645C8.41237 233.604 3.81715 233.437 0 233.551V230.057C1.69286 226.432 2.51069 216.355 3.19132 212.224C4.69254 203.113 8.59323 187.225 8.04562 178.503C6.5543 178.157 2.02023 177.333 2.25822 175.444C4.00605 173.662 15.6073 174.008 17.9477 174.553C23.5772 175.862 20.3922 186.188 19.5509 190.102C18.7512 193.687 18.3048 197.341 18.2181 201.013Z" fill="#004D6F"/>
<path d="M138.077 259.604C144.957 256.379 151.627 254.544 155.522 263.415C157.755 268.424 157.868 274.122 155.838 279.216C152.407 287.627 145.859 286.028 138.718 284.954C138.835 288.002 140.077 295.257 137.304 297H133.269C131.57 293.554 132.733 270.516 132.645 264.679C132.546 258.045 127.548 261.13 127.932 258.296C129.728 256.183 136.013 258.124 138.077 259.604ZM139.078 282.152C142.809 282.566 144.101 283.672 147.43 282.016L149.205 280.966C151.108 272.554 152.007 270.077 148.807 261.927C146.253 260.232 144.661 260.347 141.601 260.46C140.76 260.76 139.646 261.033 139.119 261.672C138.495 264.333 138.976 278.839 139.078 282.152Z" fill="#F17E26"/>
<path d="M0 246.822C3.67655 246.251 6.87062 246.277 10.4928 246.187C18.1239 245.997 28.8237 246.641 30.3873 256.146C32.4641 268.768 20.2916 270.47 11.0186 269.879C11.4058 273.154 12.0407 282.464 10.5502 285.189C9.45852 286.35 7.17391 286.153 5.81953 285.549C5.15986 284.737 5.10294 284.45 5.01856 283.295C4.31457 273.66 6.35408 258.073 4.10294 249.092C2.83921 248.881 1.1979 248.659 0 248.299V246.822ZM21.191 265.011C22.97 263.673 23.4608 262.792 23.6731 260.565C24.6033 250.809 19.85 249.42 11.7013 249.537C11.5616 249.682 11.395 249.855 11.2016 250.056C11.0283 254.659 11.6254 262.592 11.1208 266.911C13.9774 266.734 18.8941 266.603 21.191 265.011Z" fill="#F17E26"/>
<path d="M294.161 297C294.173 296.571 294.083 295.495 294.512 295.338C298.349 293.949 303.356 289.264 301.644 284.634C298.921 277.273 296.167 268.556 292.152 261.797C291.746 261.134 287.374 258.641 286.69 257.855C287.615 256.575 289.492 256.873 290.939 256.752C300.105 255.988 300.817 267.023 303.85 273.049C304.48 274.298 305.321 275.398 306.207 276.563C307.356 272.5 309.034 268.526 310.555 264.574C311.759 261.44 311.591 257.144 315.814 257.63L316.38 257.992C316.523 258.908 314.299 264.402 313.762 265.431C310.035 272.564 305.87 293.572 298.944 297H294.161Z" fill="#F17E26"/>
</g>
<defs>
<clipPath id="clip0_83_6">
<rect width="447" height="297" fill="white"/>
</clipPath>
</defs>
</svg>
