<svg width="57" height="57" viewBox="0 0 57 57" fill="none" xmlns="http://www.w3.org/2000/svg">
<path d="M28.2696 0H28.1411C12.5992 0 0 12.6029 0 28.1494V28.2779C0 43.8244 12.5992 56.4273 28.1411 56.4273H28.2696C43.8115 56.4273 56.4107 43.8244 56.4107 28.2779V28.1494C56.4107 12.6029 43.8115 0 28.2696 0Z" fill="#383D38"/>
<path d="M41.8409 20.4138V25.7416C40.91 25.6506 39.7005 25.4391 38.3625 24.9488C36.6154 24.3083 35.315 23.4325 34.4632 22.7544V33.5228L34.4415 33.4891C34.4553 33.7026 34.4632 33.9201 34.4632 34.1396C34.4632 39.4871 30.1133 43.8403 24.7653 43.8403C19.4173 43.8403 15.0674 39.4871 15.0674 34.1396C15.0674 28.792 19.4173 24.4368 24.7653 24.4368C25.289 24.4368 25.8029 24.4783 26.3049 24.5594V29.8101C25.8226 29.6381 25.3048 29.5452 24.7653 29.5452C22.2336 29.5452 20.1723 31.6051 20.1723 34.1396C20.1723 36.674 22.2336 38.7339 24.7653 38.7339C27.297 38.7339 29.3583 36.672 29.3583 34.1396C29.3583 34.0447 29.3563 33.9498 29.3504 33.8549V12.9291H34.6727C34.6924 13.3799 34.7102 13.8346 34.73 14.2853C34.7656 15.173 35.0818 16.025 35.6332 16.7229C36.2794 17.5433 37.234 18.4962 38.574 19.2573C39.829 19.967 41.0069 20.2734 41.8409 20.4177V20.4138Z" fill="white"/>
</svg>
