<svg width="255" height="255" viewBox="0 0 255 255" fill="none" xmlns="http://www.w3.org/2000/svg">
<rect width="255" height="255" rx="127.5" fill="black"/>
<path d="M112.378 111.937V105.871C110.35 105.573 108.323 105.44 106.263 105.44C81.3051 105.44 61 125.693 61 150.621C61 165.372 68.2115 179.161 80.3414 187.614C80.142 187.382 79.9094 187.15 79.71 186.918C72.565 178.929 68.4441 168.388 68.4441 156.853C68.3444 132.422 87.9184 112.434 112.378 111.937Z" fill="#25F4EE"/>
<path d="M113.474 177.636C124.607 177.636 133.879 168.62 134.311 157.615L134.344 59.4307L152.224 59.4638L152.19 59.2318C151.792 57.1766 151.625 55.0883 151.625 53H127.033L126.967 151.35C126.568 162.72 116.997 171.603 105.598 171.206C102.508 171.106 99.4502 170.277 96.7251 168.852C100.447 174.056 106.562 177.636 113.474 177.636Z" fill="#25F4EE"/>
<path d="M185.822 93.0428V87.1756C179.209 87.1756 172.728 85.253 167.178 81.6399C171.964 87.1093 178.444 91.4517 185.822 93.0428Z" fill="#25F4EE"/>
<path d="M167.178 81.6399C161.761 75.4412 158.77 67.4857 158.77 59.265H152.024C153.719 68.6127 159.468 76.6345 167.178 81.6399Z" fill="#FE2C55"/>
<path d="M106.296 129.804C94.8973 129.804 85.426 139.251 85.426 150.621C85.426 158.543 90.1118 165.438 96.6919 168.885C89.9789 159.703 92.0061 146.875 101.178 140.179C106.462 136.334 113.308 135.207 119.556 137.196V112.136C117.529 111.838 115.502 111.705 113.441 111.705C113.076 111.705 112.743 111.738 112.378 111.738L112.212 111.771V130.699C110.284 130.036 108.29 129.771 106.296 129.804Z" fill="#FE2C55"/>
<path d="M185.822 92.645L185.689 92.6118L185.622 111.506C173.359 111.506 161.396 107.628 151.426 100.468L151.393 150.621C151.426 175.449 131.287 195.569 106.429 195.602C106.396 195.602 106.329 195.602 106.296 195.602C96.6585 195.602 87.6857 192.752 80.3413 187.581C88.8821 196.763 100.879 202 113.474 202C138.432 202 158.77 181.747 158.77 156.819V106.965C168.74 114.125 180.704 117.97 193 117.937V93.4074C190.574 93.4074 188.181 93.1422 185.822 92.645Z" fill="#FE2C55"/>
<path d="M151.592 150.621V100.733C161.562 107.893 173.526 111.738 185.822 111.705V92.645C178.577 91.087 172.03 87.2419 167.178 81.6399C159.302 76.5351 153.885 68.447 152.157 59.265H134.145L134.112 157.615C133.713 168.985 124.142 177.868 112.743 177.471C106.363 177.239 100.414 174.089 96.6918 168.885C86.5891 163.615 82.6677 151.151 87.9516 141.041C91.5075 134.246 98.5861 129.97 106.263 129.97C108.323 129.97 110.384 130.301 112.378 130.931V111.705C87.9184 112.302 68.1782 132.323 68.1782 156.886C68.1782 168.322 72.5317 179.294 80.3414 187.647C87.9516 192.984 96.9909 195.835 106.296 195.835C131.254 195.801 151.592 175.515 151.592 150.621Z" fill="white"/>
</svg>
