<svg width="57" height="57" viewBox="0 0 57 57" fill="none" xmlns="http://www.w3.org/2000/svg">
<path d="M56.4107 28.2137C56.4107 12.6317 43.7828 0 28.2054 0C12.628 0 0 12.6317 0 28.2137C0 43.7957 12.628 56.4273 28.2054 56.4273C43.7828 56.4273 56.4107 43.7957 56.4107 28.2137Z" fill="#383D38"/>
<path d="M45.8595 22.3672C45.6375 20.2241 45.1599 17.8549 43.4019 16.6099C42.0403 15.6444 40.2505 15.6087 38.5797 15.6107C35.0479 15.6107 31.514 15.6166 27.9822 15.6186C24.5851 15.6226 21.188 15.6245 17.7909 15.6285C16.3718 15.6285 14.9923 15.5195 13.6743 16.1341C12.5426 16.6614 11.6567 17.6646 11.1235 18.7808C10.3843 20.3331 10.2297 22.0916 10.1405 23.8085C9.97598 26.935 9.99382 30.0694 10.19 33.1939C10.3347 35.4738 10.7014 37.9937 12.4633 39.4469C14.0251 40.7335 16.2291 40.797 18.2546 40.799C24.6841 40.8049 31.1156 40.8109 37.5471 40.8148C38.3716 40.8168 39.2318 40.801 40.0721 40.7098C41.7251 40.5313 43.3008 40.0575 44.3631 38.8323C45.4353 37.5971 45.7108 35.8783 45.8734 34.2506C46.2698 30.3014 46.2658 26.3145 45.8595 22.3672ZM24.264 33.749V22.6765L33.8488 28.2118L24.264 33.749Z" fill="white"/>
</svg>
